# Blender 4.4.3
# www.blender.org
mtllib BackroomShelf.mtl
o Shelves
v 4.534112 11.045511 8.780190
v 4.067381 11.045511 -8.780190
v 4.534108 11.045511 -8.780190
v 0.244184 11.045511 -8.780190
v 0.244184 11.295633 -8.780190
v 4.534108 11.295633 -8.780190
v 4.067381 11.295633 -8.780190
v 0.244184 11.045511 8.780190
v 4.067381 11.045511 8.780190
v 4.067381 11.295633 8.780190
v 4.534108 11.295633 8.780190
v 0.244184 11.295633 8.780190
v -4.534112 11.045511 8.780190
v -4.067362 11.045511 -8.780190
v -4.534108 11.045511 -8.780190
v -0.244203 11.045511 -8.780190
v -0.244203 11.295633 -8.780190
v -4.534108 11.295633 -8.780190
v -4.067362 11.295633 -8.780190
v -0.244203 11.045511 8.780190
v -4.067362 11.045511 8.780190
v -4.067362 11.295633 8.780190
v -4.534108 11.295633 8.780190
v -0.244203 11.295633 8.780190
v 0.244184 10.481624 -8.780190
v 0.244184 10.481624 8.780190
v 4.067381 10.481624 -8.780190
v 4.534108 10.481624 -8.780190
v 4.067381 10.481624 8.780190
v 4.534112 10.481624 8.780190
v -0.244203 10.481624 -8.780190
v -0.244203 10.481624 8.780190
v -4.067362 10.481624 -8.780190
v -4.534108 10.481624 -8.780190
v -4.067362 10.481624 8.780190
v -4.534112 10.481624 8.780190
v -4.677958 -0.705435 8.924040
v 4.677958 -0.705435 8.924040
v 4.677958 -0.705435 8.322603
v 4.078172 -0.705435 8.924040
v -4.078171 -0.705435 8.924040
v -4.677958 -0.705435 8.322606
v -4.677958 11.294564 8.924040
v 4.677958 11.294564 8.924040
v 4.677958 11.294564 8.322603
v 4.078172 11.294564 8.924040
v -4.078171 11.294564 8.924040
v -4.677958 11.294564 8.322606
v -4.534109 11.294564 -8.780190
v 4.534109 11.294564 -8.780190
v 4.534109 11.294564 -8.322603
v 4.078172 11.294564 -8.780190
v -4.078171 11.294564 -8.780190
v -4.534109 11.294564 -8.322606
v -4.540958 -0.705435 8.787040
v 4.540958 -0.705435 8.787040
v 4.540958 -0.705435 8.322603
v 4.078172 -0.705435 8.787040
v -4.078171 -0.705435 8.787040
v -4.540958 -0.705435 8.322606
v -4.540958 11.294564 8.787040
v 4.540958 11.294564 8.787040
v 4.540958 11.294564 8.322603
v 4.078172 11.294564 8.787040
v -4.078171 11.294564 8.787040
v -4.540958 11.294564 8.322606
v -4.534109 11.294564 -8.780190
v 4.534109 11.294564 -8.780190
v 4.534109 11.294564 -8.322603
v 4.078172 11.294564 -8.780190
v -4.078171 11.294564 -8.780190
v -4.534109 11.294564 -8.322606
v -4.677958 5.083940 8.322606
v -4.677958 5.505190 8.322606
v -4.677958 5.505190 8.924040
v -4.677958 5.083940 8.924040
v -4.078171 5.505190 8.924040
v -4.078171 5.083940 8.924040
v -4.540958 5.505190 8.322606
v -4.540958 5.083940 8.322606
v -4.540958 5.083940 8.787040
v -4.540958 5.505190 8.787040
v -4.078171 5.083940 8.787040
v -4.078171 5.505190 8.787040
v 4.677958 11.067708 8.924040
v 4.677958 10.646458 8.924040
v 4.677958 11.067708 8.322603
v 4.677958 10.646458 8.322603
v 4.540958 10.646458 8.787040
v 4.540958 11.067708 8.787040
v 4.540958 10.646458 8.322603
v 4.540958 11.067708 8.322603
v 4.078172 10.646458 8.924040
v 4.078172 11.067708 8.924040
v 4.078172 11.067708 8.787040
v 4.078172 10.646458 8.787040
v 4.078172 -0.073532 8.924040
v 4.078172 -0.494782 8.924040
v 4.078172 -0.494782 8.787040
v 4.078172 -0.073532 8.787040
v 4.677958 -0.494782 8.924040
v 4.677958 -0.073532 8.924040
v 4.677958 -0.494782 8.322603
v 4.677958 -0.073532 8.322603
v 4.540958 -0.073532 8.787040
v 4.540958 -0.494782 8.787040
v 4.540958 -0.073532 8.322603
v 4.540958 -0.494782 8.322603
v -3.713377 5.294564 8.924040
v -3.713377 5.294564 8.787040
v -4.677958 -0.705435 -8.924039
v 4.677958 -0.705435 -8.924039
v 4.677958 -0.705435 -8.322601
v 4.078172 -0.705435 -8.924039
v -4.078171 -0.705435 -8.924039
v -4.677958 -0.705435 -8.322605
v -4.677958 11.294563 -8.924039
v 4.677958 11.294563 -8.924039
v 4.677958 11.294563 -8.322601
v 4.078172 11.294563 -8.924039
v -4.078171 11.294563 -8.924039
v -4.677958 11.294563 -8.322605
v -4.534109 11.294563 8.780189
v 4.534109 11.294563 8.780189
v 4.534109 11.294563 8.322601
v 4.078172 11.294563 8.780189
v -4.078171 11.294563 8.780189
v -4.534109 11.294563 8.322605
v -4.540958 -0.705435 -8.787039
v 4.540958 -0.705435 -8.787039
v 4.540958 -0.705435 -8.322601
v 4.078172 -0.705435 -8.787039
v -4.078171 -0.705435 -8.787039
v -4.540958 -0.705435 -8.322605
v -4.540958 11.294563 -8.787039
v 4.540958 11.294563 -8.787039
v 4.540958 11.294563 -8.322601
v 4.078172 11.294563 -8.787039
v -4.078171 11.294563 -8.787039
v -4.540958 11.294563 -8.322605
v -4.534109 11.294563 8.780189
v 4.534109 11.294563 8.780189
v 4.534109 11.294563 8.322601
v 4.078172 11.294563 8.780189
v -4.078171 11.294563 8.780189
v -4.534109 11.294563 8.322605
v -4.677958 5.083939 -8.322605
v -4.677958 5.505189 -8.322605
v -4.677958 5.505189 -8.924039
v -4.677958 5.083939 -8.924039
v -4.078171 5.505189 -8.924039
v -4.078171 5.083939 -8.924039
v -4.540958 5.505189 -8.322605
v -4.540958 5.083939 -8.322605
v -4.540958 5.083939 -8.787039
v -4.540958 5.505189 -8.787039
v -4.078171 5.083939 -8.787039
v -4.078171 5.505189 -8.787039
v 4.677958 11.067707 -8.924039
v 4.677958 10.646457 -8.924039
v 4.677958 11.067707 -8.322601
v 4.677958 10.646457 -8.322601
v 4.540958 10.646457 -8.787039
v 4.540958 11.067707 -8.787039
v 4.540958 10.646457 -8.322601
v 4.540958 11.067707 -8.322601
v 4.078172 10.646457 -8.924039
v 4.078172 11.067707 -8.924039
v 4.078172 11.067707 -8.787039
v 4.078172 10.646457 -8.787039
v 4.078172 -0.073533 -8.924039
v 4.078172 -0.494782 -8.924039
v 4.078172 -0.494782 -8.787039
v 4.078172 -0.073533 -8.787039
v 4.677958 -0.494782 -8.924039
v 4.677958 -0.073533 -8.924039
v 4.677958 -0.494782 -8.322601
v 4.677958 -0.073533 -8.322601
v 4.540958 -0.073533 -8.787039
v 4.540958 -0.494782 -8.787039
v 4.540958 -0.073533 -8.322601
v 4.540958 -0.494782 -8.322601
v -3.713377 5.294564 -8.924039
v -3.713377 5.294564 -8.787039
vn 1.0000 -0.0000 -0.0000
vn -0.0000 -0.0000 -1.0000
vn -0.0000 1.0000 -0.0000
vn -0.0000 -0.0000 1.0000
vn -0.0000 -1.0000 -0.0000
vn -1.0000 -0.0000 -0.0000
vn -0.5634 0.8262 -0.0000
vn -0.5645 -0.8254 -0.0000
vn 0.5673 0.8235 -0.0000
vn 0.5662 -0.8243 -0.0000
vt 0.375000 0.500000
vt 0.625000 0.500000
vt 0.625000 0.750000
vt 0.375000 0.750000
vt 0.375000 0.378250
vt 0.625000 0.378250
vt 0.625000 0.434250
vt 0.375000 0.434250
vt 0.690750 0.500000
vt 0.746750 0.500000
vt 0.746750 0.750000
vt 0.690750 0.750000
vt 0.375000 0.815750
vt 0.625000 0.815750
vt 0.625000 0.871750
vt 0.375000 0.871750
vt 0.253250 0.500000
vt 0.309250 0.500000
vt 0.309250 0.750000
vt 0.253250 0.750000
vt 0.684250 0.750000
vt 0.684250 0.500000
vt 0.375000 0.809250
vt 0.625000 0.809250
vt 0.625000 0.440750
vt 0.375000 0.440750
vt 0.315750 0.500000
vt 0.315750 0.750000
vt 0.000000 0.000000
s 0
f 3/1/1 6/2/1 11/3/1 1/4/1
f 4/5/2 5/6/2 7/7/2 2/8/2
f 7/9/3 5/10/3 12/11/3 10/12/3
f 9/13/4 10/14/4 12/15/4 8/16/4
f 4/17/5 2/18/5 9/19/5 8/20/5
f 7/9/3 10/12/3 11/21/3 6/22/3
f 17/6/2 5/6/2 4/5/2 16/5/2
f 3/1/1 1/4/1 30/4/1 28/1/1
f 10/14/4 9/13/4 1/23/4 11/24/4
f 5/10/3 17/10/3 24/11/3 12/11/3
f 6/25/2 3/26/2 2/8/2 7/7/2
f 12/15/4 24/15/4 20/16/4 8/16/4
f 15/1/6 13/4/6 23/3/6 18/2/6
f 16/5/2 14/8/2 19/7/2 17/6/2
f 19/9/3 22/12/3 24/11/3 17/10/3
f 21/13/4 20/16/4 24/15/4 22/14/4
f 16/17/5 20/20/5 21/19/5 14/18/5
f 19/9/3 18/22/3 23/21/3 22/12/3
f 20/20/6 16/17/6 31/17/6 32/20/6
f 22/14/4 23/24/4 13/23/4 21/13/4
f 18/25/2 19/7/2 14/8/2 15/26/2
f 2/8/2 3/26/2 28/26/2 27/8/2
f 28/27/5 30/28/5 29/19/5 27/18/5
f 34/27/5 33/18/5 35/19/5 36/28/5
f 31/17/5 25/17/5 26/20/5 32/20/5
f 21/13/4 13/23/4 36/23/4 35/13/4
f 9/19/6 2/18/6 27/18/6 29/19/6
f 15/26/2 14/8/2 33/8/2 34/26/2
f 13/4/6 15/1/6 34/1/6 36/4/6
f 4/17/1 8/20/1 26/20/1 25/17/1
f 14/18/1 21/19/1 35/19/1 33/18/1
f 1/23/4 9/13/4 29/13/4 30/23/4
f 8/16/4 20/16/4 32/16/4 26/16/4
f 16/5/2 4/5/2 25/5/2 31/5/2
f 104/29/1 88/29/1 86/29/1 102/29/1
f 102/29/4 86/29/4 93/29/4 97/29/4
f 75/29/4 77/29/4 47/29/4 43/29/4
f 37/29/4 41/29/4 78/29/4 76/29/4
f 94/29/6 46/29/6 64/29/6 95/29/6
f 96/29/2 89/29/2 105/29/2 100/29/2
f 82/29/2 61/29/2 65/29/2 84/29/2
f 55/29/2 81/29/2 83/29/2 59/29/2
f 39/29/5 38/29/5 56/29/5 57/29/5
f 41/29/5 37/29/5 55/29/5 59/29/5
f 38/29/5 40/29/5 58/29/5 56/29/5
f 37/29/5 42/29/5 60/29/5 55/29/5
f 44/29/3 45/29/3 63/29/3 62/29/3
f 43/29/3 47/29/3 65/29/3 61/29/3
f 46/29/3 44/29/3 62/29/3 64/29/3
f 48/29/3 43/29/3 61/29/3 66/29/3
f 93/29/6 96/29/6 100/29/6 97/29/6
f 56/29/6 106/29/6 108/29/6 57/29/6
f 42/29/2 73/29/2 80/29/2 60/29/2
f 60/29/1 80/29/1 81/29/1 55/29/1
f 78/29/1 41/29/1 59/29/1 83/29/1
f 74/29/6 75/29/6 43/29/6 48/29/6
f 85/29/1 87/29/1 45/29/1 44/29/1
f 79/29/1 66/29/1 61/29/1 82/29/1
f 47/29/1 77/29/1 84/29/1 65/29/1
f 74/29/2 48/29/2 66/29/2 79/29/2
f 40/29/6 98/29/6 99/29/6 58/29/6
f 95/29/2 64/29/2 62/29/2 90/29/2
f 105/29/6 89/29/6 91/29/6 107/29/6
f 45/29/2 87/29/2 92/29/2 63/29/2
f 94/29/4 85/29/4 44/29/4 46/29/4
f 104/29/2 107/29/2 91/29/2 88/29/2
f 58/29/2 99/29/2 106/29/2 56/29/2
f 103/29/2 39/29/2 57/29/2 108/29/2
f 38/29/1 39/29/1 103/29/1 101/29/1
f 40/29/4 38/29/4 101/29/4 98/29/4
f 90/29/6 62/29/6 63/29/6 92/29/6
f 74/29/2 79/29/2 80/29/2 73/29/2
f 83/29/2 81/29/2 82/29/2 84/29/2
f 79/29/1 82/29/1 81/29/1 80/29/1
f 77/29/4 75/29/4 76/29/4 78/29/4
f 75/29/6 74/29/6 73/29/6 76/29/6
f 88/29/2 91/29/2 92/29/2 87/29/2
f 84/29/7 77/29/7 94/29/7 95/29/7
f 90/29/6 92/29/6 91/29/6 89/29/6
f 95/29/2 90/29/2 89/29/2 96/29/2
f 87/29/1 85/29/1 86/29/1 88/29/1
f 85/29/4 94/29/4 93/29/4 86/29/4
f 102/29/4 97/29/4 98/29/4 101/29/4
f 104/29/1 102/29/1 101/29/1 103/29/1
f 100/29/2 105/29/2 106/29/2 99/29/2
f 105/29/6 107/29/6 108/29/6 106/29/6
f 83/29/8 99/29/8 98/29/8 78/29/8
f 103/29/2 108/29/2 107/29/2 104/29/2
f 42/29/6 37/29/6 76/29/6 73/29/6
f 110/29/2 84/29/2 95/29/2 96/29/2
f 94/29/4 77/29/4 109/29/4 93/29/4
f 77/29/4 78/29/4 109/29/4
f 110/29/2 83/29/2 84/29/2
f 110/29/2 100/29/2 99/29/2 83/29/2
f 78/29/4 98/29/4 97/29/4 109/29/4
f 109/29/9 97/29/9 100/29/9 110/29/9
f 109/29/10 110/29/10 96/29/10 93/29/10
f 178/29/1 176/29/1 160/29/1 162/29/1
f 176/29/2 171/29/2 167/29/2 160/29/2
f 149/29/2 117/29/2 121/29/2 151/29/2
f 111/29/2 150/29/2 152/29/2 115/29/2
f 168/29/6 169/29/6 138/29/6 120/29/6
f 170/29/4 174/29/4 179/29/4 163/29/4
f 156/29/4 158/29/4 139/29/4 135/29/4
f 129/29/4 133/29/4 157/29/4 155/29/4
f 113/29/5 131/29/5 130/29/5 112/29/5
f 115/29/5 133/29/5 129/29/5 111/29/5
f 112/29/5 130/29/5 132/29/5 114/29/5
f 111/29/5 129/29/5 134/29/5 116/29/5
f 118/29/3 136/29/3 137/29/3 119/29/3
f 117/29/3 135/29/3 139/29/3 121/29/3
f 120/29/3 138/29/3 136/29/3 118/29/3
f 122/29/3 140/29/3 135/29/3 117/29/3
f 167/29/6 171/29/6 174/29/6 170/29/6
f 130/29/6 131/29/6 182/29/6 180/29/6
f 116/29/4 134/29/4 154/29/4 147/29/4
f 134/29/1 129/29/1 155/29/1 154/29/1
f 152/29/1 157/29/1 133/29/1 115/29/1
f 148/29/6 122/29/6 117/29/6 149/29/6
f 159/29/1 118/29/1 119/29/1 161/29/1
f 153/29/1 156/29/1 135/29/1 140/29/1
f 121/29/1 139/29/1 158/29/1 151/29/1
f 148/29/4 153/29/4 140/29/4 122/29/4
f 114/29/6 132/29/6 173/29/6 172/29/6
f 169/29/4 164/29/4 136/29/4 138/29/4
f 179/29/6 181/29/6 165/29/6 163/29/6
f 119/29/4 137/29/4 166/29/4 161/29/4
f 168/29/2 120/29/2 118/29/2 159/29/2
f 178/29/4 162/29/4 165/29/4 181/29/4
f 132/29/4 130/29/4 180/29/4 173/29/4
f 177/29/4 182/29/4 131/29/4 113/29/4
f 112/29/1 175/29/1 177/29/1 113/29/1
f 114/29/2 172/29/2 175/29/2 112/29/2
f 164/29/6 166/29/6 137/29/6 136/29/6
f 148/29/4 147/29/4 154/29/4 153/29/4
f 157/29/4 158/29/4 156/29/4 155/29/4
f 153/29/1 154/29/1 155/29/1 156/29/1
f 151/29/2 152/29/2 150/29/2 149/29/2
f 149/29/6 150/29/6 147/29/6 148/29/6
f 162/29/4 161/29/4 166/29/4 165/29/4
f 158/29/7 169/29/7 168/29/7 151/29/7
f 164/29/6 163/29/6 165/29/6 166/29/6
f 169/29/4 170/29/4 163/29/4 164/29/4
f 161/29/1 162/29/1 160/29/1 159/29/1
f 159/29/2 160/29/2 167/29/2 168/29/2
f 176/29/2 175/29/2 172/29/2 171/29/2
f 178/29/1 177/29/1 175/29/1 176/29/1
f 174/29/4 173/29/4 180/29/4 179/29/4
f 179/29/6 180/29/6 182/29/6 181/29/6
f 157/29/8 152/29/8 172/29/8 173/29/8
f 177/29/4 178/29/4 181/29/4 182/29/4
f 116/29/6 147/29/6 150/29/6 111/29/6
f 184/29/4 170/29/4 169/29/4 158/29/4
f 168/29/2 167/29/2 183/29/2 151/29/2
f 151/29/2 183/29/2 152/29/2
f 184/29/4 158/29/4 157/29/4
f 184/29/4 157/29/4 173/29/4 174/29/4
f 152/29/2 183/29/2 171/29/2 172/29/2
f 183/29/9 184/29/9 174/29/9 171/29/9
f 183/29/10 167/29/10 170/29/10 184/29/10
l 51 50
l 53 49
l 50 52
l 49 54
l 69 68
l 71 67
l 68 70
l 67 72
l 125 124
l 127 123
l 124 126
l 123 128
l 143 142
l 145 141
l 142 144
l 141 146
